<svg id="Layer_1" data-name="Layer 1" xmlns="http://www.w3.org/2000/svg" viewBox="0 0 403.21 239.73"><defs><style>.cls-1{fill:#002b59;}.cls-2{fill:#147aff;}</style></defs><path class="cls-1" d="M21.87,56.2v98H1.71v-98ZM14,56.2H34.75q11.61,0,19.81,4a29,29,0,0,1,17,27.37,30.85,30.85,0,0,1-2.52,12.67,28.2,28.2,0,0,1-7.21,9.8,32.49,32.49,0,0,1-11.48,6.37,49.61,49.61,0,0,1-15.61,2.25H14v-16H33.49a22.28,22.28,0,0,0,9.1-1.75,13.19,13.19,0,0,0,5.95-5,14.42,14.42,0,0,0,2-7.84,14.82,14.82,0,0,0-2-7.91,12.64,12.64,0,0,0-5.95-5,23,23,0,0,0-9.1-1.68H14Zm31.5,52.36L77.45,154.2H53.37L24.25,108.56Z"/><path class="cls-1" d="M95.44,151.47a29.77,29.77,0,0,1-12.11-11.69A35,35,0,0,1,79,122a38.74,38.74,0,0,1,2.38-13.93A28.76,28.76,0,0,1,88.3,97.44a30,30,0,0,1,11-6.73,42.9,42.9,0,0,1,14.56-2.31q10.64,0,18.13,3.85a26.76,26.76,0,0,1,11.48,11.13q4,7.29,4,17.78a24.86,24.86,0,0,1-.14,2.66,18,18,0,0,0-.14,2.1H89.49v-11.2h41.58l-4.9,6.44a6.38,6.38,0,0,0,1.12-2.31,9.21,9.21,0,0,0,.42-2.45,17.28,17.28,0,0,0-1.75-7.91,13,13,0,0,0-4.9-5.32,14,14,0,0,0-7.35-1.89,18.19,18.19,0,0,0-7.07,1.26,12.33,12.33,0,0,0-5,3.86,18.57,18.57,0,0,0-3.15,6.36,31,31,0,0,0-1.12,8.82,25.74,25.74,0,0,0,1.82,10.86,14.51,14.51,0,0,0,5.67,6.85,16.74,16.74,0,0,0,9,2.31,22.8,22.8,0,0,0,10.36-2.24,15.84,15.84,0,0,0,7-7l16,5a37.82,37.82,0,0,1-8,9.94,32,32,0,0,1-11.06,6.16,45.27,45.27,0,0,1-14.21,2.1Q103.2,155.6,95.44,151.47Z"/><path class="cls-2" d="M157.25,185V89.8h18.2V185Zm68.6-48.3a30.67,30.67,0,0,1-6.93,10.64,30,30,0,0,1-21.63,8.82A25.72,25.72,0,0,1,186,153.78a23.36,23.36,0,0,1-8.47-6.86,31.3,31.3,0,0,1-5.32-10.77A50.77,50.77,0,0,1,170.41,122a50.7,50.7,0,0,1,1.82-14.14,31.35,31.35,0,0,1,5.32-10.78A24.3,24.3,0,0,1,186,90.15a25.19,25.19,0,0,1,11.27-2.45A29.87,29.87,0,0,1,209.05,90a31.53,31.53,0,0,1,9.87,6.65,30.76,30.76,0,0,1,6.93,10.64,39.42,39.42,0,0,1,2.52,14.7A39.42,39.42,0,0,1,225.85,136.7ZM208,114.37a15.75,15.75,0,0,0-3.78-5.6,17.06,17.06,0,0,0-5.53-3.5,18.61,18.61,0,0,0-6.72-1.19,16.56,16.56,0,0,0-5.88,1.12,15.51,15.51,0,0,0-5.32,3.43,17.83,17.83,0,0,0-3.85,5.6,21.27,21.27,0,0,0,0,15.54,16.86,16.86,0,0,0,9.17,9,15.44,15.44,0,0,0,5.88,1.19,17.63,17.63,0,0,0,6.72-1.26,18.52,18.52,0,0,0,5.53-3.5,14.92,14.92,0,0,0,3.78-5.6,22.35,22.35,0,0,0,0-15.19Z"/><path class="cls-2" d="M256.65,45V154.2H238.17V45Z"/><path class="cls-2" d="M285.34,138.94a8.07,8.07,0,0,0,3.64,3,13.43,13.43,0,0,0,5.46,1.05,16.77,16.77,0,0,0,7.49-1.68,13.62,13.62,0,0,0,5.53-4.9,14.56,14.56,0,0,0,2.1-8.12l2.24,8.4a16.33,16.33,0,0,1-3.36,10.43,20.16,20.16,0,0,1-8.75,6.37,31.11,31.11,0,0,1-11.41,2.1,26.83,26.83,0,0,1-11.34-2.38,19.64,19.64,0,0,1-8.26-6.93,21.32,21.32,0,0,1-.14-21.84,19.19,19.19,0,0,1,8.68-7.07,33.62,33.62,0,0,1,13.58-2.52,43.79,43.79,0,0,1,10.71,1.19,36.34,36.34,0,0,1,8,2.94,16.31,16.31,0,0,1,4.83,3.57v8.68a27.24,27.24,0,0,0-8.54-4.2,35.11,35.11,0,0,0-9.94-1.39,19.19,19.19,0,0,0-6.65,1,7.8,7.8,0,0,0-3.85,2.87,8,8,0,0,0-1.26,4.55A8.87,8.87,0,0,0,285.34,138.94ZM270.08,95.69a84.29,84.29,0,0,1,12.32-5.12,50.85,50.85,0,0,1,16.24-2.45,45.59,45.59,0,0,1,11.41,1.33,29,29,0,0,1,9,4,19.42,19.42,0,0,1,6.09,6.44,17.1,17.1,0,0,1,2.17,8.68V154.2H309.56V112.48a11.09,11.09,0,0,0-.84-4.62,7.79,7.79,0,0,0-2.59-3.08,11.57,11.57,0,0,0-4.06-1.82,22.54,22.54,0,0,0-5.25-.56,33.74,33.74,0,0,0-8.61,1,53.68,53.68,0,0,0-7,2.31,19.36,19.36,0,0,0-4.41,2.39Z"/><path class="cls-2" d="M359.27,185H340.5l16.39-37.24-27-58h20.3L370.89,141l-9.1-.28,20.58-51h18.89Z"/><path class="cls-2" d="M281.63,203.6a116.57,116.57,0,0,1-21,16.6,105.21,105.21,0,0,1-24.16,11c-2.09.71-4.26,1.19-6.38,1.76s-4.31.91-6.46,1.34a102.67,102.67,0,0,1-13.06,1.34l-3.27.11-3.26-.06c-2.18,0-4.34-.22-6.5-.41l-3.23-.29c-1.08-.11-2.14-.34-3.21-.5l-3.19-.54-1.6-.26-1.57-.39a95,95,0,0,1-24-8.8,104.12,104.12,0,0,1-37.3-32.92A115.36,115.36,0,0,1,111.61,170,114.24,114.24,0,0,0,125.51,190a99.62,99.62,0,0,0,17.73,16.14A97.25,97.25,0,0,0,164,217.36,85.93,85.93,0,0,0,186.55,223a87.53,87.53,0,0,0,44.6-6.52,88.5,88.5,0,0,0,19.21-11.35,96.56,96.56,0,0,0,15.78-15.52Z"/><polygon class="cls-2" points="301.09 221.32 240.29 179.49 291.6 170.02 301.09 221.32"/><path class="cls-2" d="M120.49,37.32a116.22,116.22,0,0,1,21-17.12A104.72,104.72,0,0,1,166,8.81a107.13,107.13,0,0,1,13-3.26c2.21-.31,4.4-.71,6.61-.93s4.42-.47,6.64-.5L195.53,4c1.1,0,2.21,0,3.31,0s2.2,0,3.3.11l3.3.29,3.28.29c1.09.08,2.17.33,3.26.49l3.24.55,1.62.27c.53.1,1.06.25,1.59.38a95.9,95.9,0,0,1,24.39,9,104.09,104.09,0,0,1,37.62,33.66,115.86,115.86,0,0,1,11.78,22,114.26,114.26,0,0,0-13.85-20.4,100.93,100.93,0,0,0-17.84-16.56,98.11,98.11,0,0,0-21-11.56,86.44,86.44,0,0,0-22.87-5.78A87.67,87.67,0,0,0,152,35.19a96.63,96.63,0,0,0-15.83,15.94Z"/><polygon class="cls-2" points="100.83 19.87 162.17 60.9 110.99 71.04 100.83 19.87"/></svg>